<svg id="Layer_1" data-name="Layer 1" xmlns="http://www.w3.org/2000/svg" xmlns:xlink="http://www.w3.org/1999/xlink" viewBox="0 0 1258.92 996.82"><defs><style>.cls-1{fill:none;}.cls-2{clip-path:url(#clip-path);}.cls-3{clip-path:url(#clip-path-2);}.cls-4{fill:#3294d1;}.cls-5{fill:#7ba7b8;}.cls-6{fill:#f08434;}.cls-7{fill:#6f7fa7;}</style><clipPath id="clip-path"><rect class="cls-1" width="1258.92" height="996.82"/></clipPath><clipPath id="clip-path-2"><rect class="cls-1" width="1258.92" height="996.81"/></clipPath></defs><g class="cls-2"><g class="cls-3"><path class="cls-4" d="M682.38,320.64c0-108.18-87.7-195.87-195.88-195.87S290.64,212.46,290.64,320.64s87.7,195.88,195.86,195.88,195.88-87.69,195.88-195.88"/><path class="cls-5" d="M661.23,771.4A100.66,100.66,0,1,0,560.58,872.05,100.65,100.65,0,0,0,661.23,771.4"/><path class="cls-6" d="M466.31,645.08a94,94,0,1,0-94,94,94,94,0,0,0,94-94"/><path class="cls-7" d="M980.64,566.49A167.1,167.1,0,1,0,813.53,733.6,167.1,167.1,0,0,0,980.64,566.49"/></g></g></svg>