<svg id="Layer_1" data-name="Layer 1" xmlns="http://www.w3.org/2000/svg" xmlns:xlink="http://www.w3.org/1999/xlink" viewBox="0 0 2000 800"><defs><style>.cls-1{fill:none;}.cls-2{clip-path:url(#clip-path);}.cls-3{fill:#3294d1;}.cls-4{fill:#7ba7b8;}.cls-5{fill:#f08434;}.cls-6{fill:#6f7fa7;}.cls-7{fill:#020307;}</style><clipPath id="clip-path"><rect class="cls-1" width="2000" height="800"/></clipPath></defs><g class="cls-2"><g class="cls-2"><path class="cls-3" d="M1199.86,261.26a67.37,67.37,0,1,0-67.37,67.37,67.37,67.37,0,0,0,67.37-67.37"/><path class="cls-4" d="M1192.58,416.29A34.62,34.62,0,1,0,1158,450.9a34.61,34.61,0,0,0,34.61-34.61"/><path class="cls-5" d="M1125.54,372.84a32.33,32.33,0,1,0-32.33,32.33,32.35,32.35,0,0,0,32.33-32.33"/><path class="cls-6" d="M1302.43,345.81A57.47,57.47,0,1,0,1245,403.29a57.47,57.47,0,0,0,57.47-57.48"/><path class="cls-7" d="M1105.43,437.41a12.21,12.21,0,1,1-12.2-12.2,12.21,12.21,0,0,1,12.2,12.2"/><polygon class="cls-7" points="312.3 342.93 312.3 417.91 301.28 417.91 301.28 342.93 284.87 342.93 284.87 335.5 328.71 335.5 328.71 342.93 312.3 342.93"/><path class="cls-7" d="M372.91,417.91V372.16c0-6.71-2.87-12.7-13.17-12.7a22.73,22.73,0,0,0-12.58,3.23v55.22H336.62v-94h10.54V356.7A31.79,31.79,0,0,1,362,352.75c16.41,0,21.44,9.94,21.44,19.05v46.11Z"/><path class="cls-7" d="M403.7,389.64c1.19,14.62,8,21.81,19.64,21.81,7.31,0,12.58-1.8,15.93-3.72l2.76,6.95c-4,2.39-10.78,4.43-19.53,4.43-16.89,0-28.75-10.66-28.75-33.66,0-21.92,10.78-33.3,26-33.3,15.45,0,24.79,10.06,24.55,31.62ZM419.39,359c-9.35,0-16.29,7.55-16.05,25l30.9-4.67c0-14.61-5.63-20.36-14.85-20.36"/><rect class="cls-7" x="301.44" y="440.67" width="21.8" height="163.06"/><path class="cls-7" d="M422.78,603.73V512c0-11.85-5-24.88-26.78-24.88-11.85,0-17.53,1.66-24.17,4.5v112.1H351V482.62c11.38-5.45,26.31-9,46.69-9,35.55,0,46,19.67,46,37.92v92.19Z"/><path class="cls-7" d="M496.49,489V603.73H475.63V489H460.94V476h14.69V458c0-25.13,15.17-41.48,43.14-40.29V431c-12.56.71-22.28,6.63-22.28,24.65V476h22.28v13Z"/><path class="cls-7" d="M576.36,606.1c-34.84,0-50-28.68-50-66.12,0-38.16,15.41-66.36,49.77-66.36,35.08,0,50,28.2,50,66.36,0,37.44-15.17,66.12-49.77,66.12m0-119.21c-24.41,0-29.15,27.25-29.15,53.09s5.21,51.66,29.15,51.66c24.41,0,28.91-26.07,28.91-51.66s-4.5-53.09-28.91-53.09"/><path class="cls-7" d="M696.52,489.73c-10.43-3.08-22.28-2.13-29.15,2.37V603.73H646.51V482.86c12.56-6.4,24.65-9.72,55-9Z"/><path class="cls-7" d="M858.15,603.73v-92c0-12.79-6.16-24.41-24.65-24.41-10.66,0-19,3.56-26.31,11.38v105H786.34v-92.9c0-14.22-9.48-23.7-28-23.7-10.43,0-16.11,1.42-23,4.26V603.73H714.53V482.62c11.61-5.69,23.93-9,44.32-9,19.67,0,31.52,5.92,39.1,15.4,8.77-9.24,21.8-15.4,39.58-15.4,30.57,0,41.47,19.9,41.47,37.68v92.43Z"/><path class="cls-7" d="M946.55,606.1c-33.18,0-48.59-14.46-48.59-37.68,0-33.89,31.76-43.85,71.34-47.88v-7.82c0-19.67-11.85-25.36-28.2-25.36-12.32,0-23.7,4.51-30.81,8.06l-5-12.32a84.33,84.33,0,0,1,39.11-9.48c23.7,0,44.55,10.19,44.55,41.47v82c-9.71,5.46-24.65,9-42.42,9m22.75-74.89c-32.23,4-51.43,10.9-51.43,36.73,0,18.49,11.38,26.07,30.34,26.07,8.06,0,15.88-1.42,21.09-4.26Z"/><path class="cls-7" d="M1051.78,604.92c-23.23,0-31.76-16.59-31.76-32.24V489h-14.69V476H1020V446.6l20.86-6.4V476h22.27v13h-22.27v83.19c0,10.19,4.5,18.49,16.11,18.49a28,28,0,0,0,6.16-1V603a37,37,0,0,1-11.37,1.9"/><rect class="cls-7" x="1082.11" y="475.99" width="20.85" height="127.74"/><path class="cls-7" d="M1174.54,606.1c-34.84,0-50-28.68-50-66.12,0-38.16,15.41-66.36,49.78-66.36,35.07,0,50,28.2,50,66.36,0,37.44-15.17,66.12-49.77,66.12m0-119.21c-24.41,0-29.15,27.25-29.15,53.09s5.21,51.66,29.15,51.66c24.41,0,28.92-26.07,28.92-51.66s-4.51-53.09-28.92-53.09"/><path class="cls-7" d="M1316.5,603.73V512c0-11.85-5-24.88-26.78-24.88-11.85,0-17.53,1.66-24.17,4.5v112.1h-20.86V482.62c11.38-5.45,26.31-9,46.69-9,35.55,0,46,19.67,46,37.92v92.19Z"/><polygon class="cls-7" points="1421.96 603.73 1421.96 440.67 1443.77 440.67 1443.77 589.04 1492.83 589.04 1492.83 603.73 1421.96 603.73"/><path class="cls-7" d="M1551.13,606.1c-33.18,0-48.59-14.46-48.59-37.68,0-33.89,31.76-43.85,71.34-47.88v-7.82c0-19.67-11.85-25.36-28.2-25.36-12.33,0-23.7,4.51-30.81,8.06l-5-12.32a84.31,84.31,0,0,1,39.1-9.48c23.7,0,44.56,10.19,44.56,41.47v82c-9.72,5.46-24.65,9-42.42,9m22.75-74.89c-32.23,4-51.43,10.9-51.43,36.73,0,18.49,11.38,26.07,30.34,26.07,8,0,15.88-1.42,21.09-4.26Z"/><path class="cls-7" d="M1657.07,606.1c-17.31,0-30.58-4-38.16-9V417.69h20.62v62.56c6.4-3.31,13.51-5.92,26.07-5.92,29.38,0,49.53,24.65,49.53,63.28,0,41-20.15,68.49-58.06,68.49m3.31-119.45c-9.48,0-14.93,1.66-20.85,5v97.88c4.74,2.37,11.37,3.08,18,3.08,26.3,0,36.73-22,36.73-54.27,0-28-9.71-51.67-33.89-51.67"/></g></g></svg>